HIERARCHY
ROOT Hips
{
 OFFSET 0.000000 0.000000 0.000000
 CHANNELS 6 Xposition Yposition Zposition Yrotation Xrotation Zrotation
 JOINT Chest
 {
  OFFSET 0.000000 9.585900 0.002600
  CHANNELS 3 Yrotation Xrotation Zrotation
  JOINT Chest2
  {
   OFFSET 0.000000 9.601200 -0.005300
   CHANNELS 3 Yrotation Xrotation Zrotation
   JOINT Chest3
   {
    OFFSET 0.000000 9.561800 0.000000
    CHANNELS 3 Yrotation Xrotation Zrotation
    JOINT Chest4
    {
     OFFSET 0.000000 9.552100 0.000000
     CHANNELS 3 Yrotation Xrotation Zrotation
     JOINT Neck
     {
      OFFSET 0.000000 14.453000 0.000000
      CHANNELS 3 Yrotation Xrotation Zrotation
      JOINT Head
      {
       OFFSET 0.000000 8.936500 -0.011300
       CHANNELS 3 Yrotation Xrotation Zrotation
       End Site
       {
        OFFSET 0.000000 17.073600 -0.006000
       }
      }
     }
     JOINT RightCollar
     {
      OFFSET -2.921100 9.558500 0.000000
      CHANNELS 3 Yrotation Xrotation Zrotation
      JOINT RightShoulder
      {
       OFFSET -13.519700 0.000000 0.000000
       CHANNELS 3 Yrotation Xrotation Zrotation
       JOINT RightElbow
       {
        OFFSET 0.000000 -29.696600 0.000000
        CHANNELS 3 Yrotation Xrotation Zrotation
        JOINT RightWrist
        {
         OFFSET 0.000000 -24.004700 0.000000
         CHANNELS 3 Yrotation Xrotation Zrotation
         End Site
         {
          OFFSET 0.000000 -17.728500 0.000000
         }
        }
       }
      }
     }
     JOINT LeftCollar
     {
      OFFSET 2.921100 9.558500 0.000000
      CHANNELS 3 Yrotation Xrotation Zrotation
      JOINT LeftShoulder
      {
       OFFSET 13.519700 0.000000 0.000000
       CHANNELS 3 Yrotation Xrotation Zrotation
       JOINT LeftElbow
       {
        OFFSET 0.000000 -29.696600 0.000000
        CHANNELS 3 Yrotation Xrotation Zrotation
        JOINT LeftWrist
        {
         OFFSET 0.000000 -24.004700 0.000000
         CHANNELS 3 Yrotation Xrotation Zrotation
         End Site
         {
          OFFSET 0.000000 -17.728500 0.000000
         }
        }
       }
      }
     }
    }
   }
  }
 }
 JOINT RightHip
 {
  OFFSET -7.771700 -0.012900 -0.001300
  CHANNELS 3 Yrotation Xrotation Zrotation
  JOINT RightKnee
  {
   OFFSET 0.000000 -40.869800 0.001200
   CHANNELS 3 Yrotation Xrotation Zrotation
   JOINT RightAnkle
   {
    OFFSET 0.000000 -39.717900 0.002100
    CHANNELS 3 Yrotation Xrotation Zrotation
    JOINT RightToe
    {
     OFFSET 0.000000 -4.965400 11.033500
     CHANNELS 3 Yrotation Xrotation Zrotation
     End Site
     {
      OFFSET 0.000000 -1.423100 5.872300
     }
    }
   }
  }
 }
 JOINT LeftHip
 {
  OFFSET 7.771700 -0.012900 -0.001300
  CHANNELS 3 Yrotation Xrotation Zrotation
  JOINT LeftKnee
  {
   OFFSET 0.000000 -40.869800 0.001200
   CHANNELS 3 Yrotation Xrotation Zrotation
   JOINT LeftAnkle
   {
    OFFSET 0.000000 -39.717900 0.002100
    CHANNELS 3 Yrotation Xrotation Zrotation
    JOINT LeftToe
    {
     OFFSET 0.000000 -4.965400 11.033500
     CHANNELS 3 Yrotation Xrotation Zrotation
     End Site
     {
      OFFSET 0.000000 -1.423100 5.872300
     }
    }
   }
  }
 }
}
MOTION
Frames: 12
Frame Time: 0.008333
-0.726534 48.897873 38.908621 172.202632 -35.230875 -6.034890 7.226759 19.277044 6.547329 0.835613 2.541923 0.727631 1.369693 4.135590 1.227531 6.163659 16.323523 5.550519 -2.049711 15.727760 2.060473 -4.512944 -6.469988 4.563108 -1.569061 -1.555631 -3.984939 4.238760 -0.549397 -0.507815 96.067091 -70.871850 -106.252279 -0.298151 -6.620387 -7.838320 -8.630594 -1.181493 -0.281373 -2.334606 -1.482361 -2.356160 -121.644115 -72.886888 125.769146 17.203478 -12.062509 3.051732 6.663405 -48.525817 7.463820 -94.949506 82.560248 -81.878639 -2.141608 -1.438155 -3.573469 0.147216 -1.542990 -0.271045 -10.495325 -49.795476 15.150774 -145.568552 83.182266 -152.445830 2.396799 -13.513395 6.542557 0.086762 0.016348 0.066186
-0.711582 48.892925 38.919947 172.284378 -35.269280 -6.116624 7.163075 19.305329 6.596671 0.835367 2.543573 0.730085 1.366600 4.142689 1.233580 6.163072 16.328625 5.544810 -2.021133 15.735428 2.043293 -4.472893 -6.453035 4.491123 -1.573334 -1.557721 -3.941486 4.215537 -0.540489 -0.512121 95.998176 -70.809314 -106.291851 -0.180568 -6.387523 -6.762594 -8.663908 -1.165350 -0.238907 -2.314790 -1.489448 -2.401693 -121.197349 -72.760561 125.421475 17.200677 -12.235377 3.134540 6.451534 -48.122217 7.526043 -95.026405 82.557511 -81.916621 -2.162375 -1.952858 -3.211043 0.137744 -1.707318 -0.621873 -10.628447 -49.762294 15.207199 -145.904930 83.204449 -152.756683 2.368759 -13.498180 6.474503 0.099599 0.017758 0.082563
-0.702366 48.881646 38.938506 172.268861 -35.258497 -6.118965 7.155327 19.285021 6.629412 0.843454 2.545560 0.718481 1.358683 4.151197 1.236485 6.136227 16.333062 5.566559 -1.991255 15.750867 1.998175 -4.416708 -6.433832 4.414964 -1.556080 -1.557654 -3.931882 4.179391 -0.537106 -0.529578 95.987101 -70.746707 -106.397621 -0.007767 -6.121067 -5.486779 -8.660185 -1.157877 -0.252083 -2.302323 -1.492658 -2.427283 -120.746541 -72.616830 125.080161 17.187272 -12.377393 3.148822 6.298963 -47.726387 7.566581 -94.601902 82.513030 -81.481731 -2.172249 -2.843280 -2.647576 0.130169 -1.215876 -1.029612 -10.666279 -49.792090 15.240350 -146.248332 83.220014 -153.084427 2.350816 -13.482871 6.432527 0.087480 0.012770 0.083706
-0.690792 48.862177 38.970458 172.153403 -35.166069 -6.092980 7.239720 19.181755 6.665782 0.826509 2.546868 0.736767 1.360158 4.155777 1.229127 6.105768 16.339099 5.590150 -1.961963 15.765900 1.951605 -4.385777 -6.435905 4.368726 -1.534670 -1.553157 -3.938817 4.128558 -0.549692 -0.548569 96.021936 -70.690912 -106.537466 0.204671 -5.826147 -4.064852 -8.645886 -1.157709 -0.284233 -2.296261 -1.443048 -2.392687 -120.535946 -72.489338 124.995205 17.168433 -12.488165 3.101217 6.108060 -47.387396 7.712840 -93.413055 82.464946 -80.338550 -2.115101 -3.970021 -2.328386 0.073476 -0.293124 -1.147192 -10.685775 -49.914352 15.340933 -146.691106 83.233614 -153.505231 2.344417 -13.467315 6.387563 0.064166 0.008305 0.079128
-0.672440 48.844333 39.003657 172.036070 -35.078087 -6.110341 7.347673 19.075713 6.744233 0.805864 2.556123 0.753203 1.354256 4.157766 1.232769 6.082761 16.345143 5.602023 -1.935645 15.781697 1.917927 -4.309176 -6.397109 4.281379 -1.505449 -1.556041 -3.963663 4.041150 -0.564039 -0.549479 96.065411 -70.632392 -106.652321 0.420664 -5.531107 -2.563128 -8.630550 -1.159837 -0.309991 -2.254730 -1.431642 -2.384153 -120.266215 -72.375943 124.793307 17.142068 -12.560248 3.015775 5.770299 -47.044375 8.011489 -91.647332 82.398416 -78.696123 -1.938031 -5.066682 -2.331136 -0.022258 0.481903 -1.005555 -10.735844 -50.014001 15.505751 -147.018432 83.250892 -153.803648 2.345545 -13.487677 6.346669 0.026019 0.036594 0.070037
-0.661995 48.833062 39.026391 172.013570 -35.049271 -6.127468 7.351137 19.053810 6.782273 0.788540 2.566575 0.762665 1.365597 4.149213 1.223565 6.057191 16.352989 5.617906 -1.908579 15.783306 1.875766 -4.263310 -6.370030 4.231949 -1.516939 -1.530754 -3.944773 3.969560 -0.610469 -0.603757 96.075246 -70.561421 -106.703844 0.606778 -5.262740 -1.046472 -8.608777 -1.164043 -0.334931 -2.220058 -1.434621 -2.390749 -119.994450 -72.286033 124.567839 17.110375 -12.590372 2.904834 5.312578 -46.644271 8.310403 -89.897958 82.280012 -77.136359 -1.722939 -6.001588 -2.473813 -0.048812 1.001711 -0.791546 -10.783156 -50.063827 15.570538 -147.319558 83.258627 -154.080090 2.340461 -13.480771 6.299428 0.010859 0.039004 0.071638
-0.655562 48.823416 39.047690 171.984619 -35.028987 -6.115503 7.325887 19.066043 6.800586 0.817881 2.548274 0.741582 1.374080 4.142255 1.218089 6.025245 16.363969 5.645691 -1.885309 15.786347 1.839062 -4.233134 -6.356635 4.196592 -1.545835 -1.497494 -3.920365 3.897068 -0.666091 -0.665655 96.049337 -70.488303 -106.695900 0.751624 -5.035474 0.407501 -8.588359 -1.166662 -0.352625 -2.183270 -1.437223 -2.399531 -119.758014 -72.237327 124.398107 17.093631 -12.577559 2.714617 4.819602 -46.254284 8.615046 -88.411479 82.174921 -75.848655 -1.506717 -6.868494 -2.724614 -0.050184 1.359492 -0.567190 -10.789828 -50.105943 15.586756 -147.517815 83.260845 -154.267980 2.345143 -13.477356 6.261486 -0.002961 0.039884 0.077435
-0.646888 48.818371 39.065886 171.965000 -35.036982 -6.119493 7.329371 19.089303 6.822027 0.817190 2.546923 0.741658 1.352173 4.152859 1.230584 6.027156 16.353367 5.647503 -1.868866 15.805398 1.813498 -4.148048 -6.289233 4.108972 -1.561128 -1.477984 -3.918217 3.809794 -0.702022 -0.705107 96.017071 -70.442366 -106.665213 0.864758 -4.853725 1.722751 -8.574983 -1.164505 -0.360506 -2.122759 -1.432293 -2.397140 -119.613790 -72.241597 124.335432 17.097794 -12.525056 2.436740 4.315905 -45.875697 8.948815 -86.887545 82.182970 -74.492900 -1.430955 -7.685988 -3.020973 -0.032961 1.624921 -0.374675 -10.807278 -50.113008 15.604629 -147.945336 83.290347 -154.665405 2.310891 -13.459502 6.199404 0.012650 0.036008 0.089373
-0.629725 48.818837 39.082948 171.949779 -35.068510 -6.177389 7.319390 19.152317 6.892567 0.791712 2.544108 0.747151 1.380378 4.148073 1.226261 6.043277 16.339971 5.653631 -1.855110 15.822288 1.793074 -4.100747 -6.251300 4.053681 -1.552551 -1.476642 -3.942035 3.709577 -0.711282 -0.719637 96.015815 -70.437888 -106.646469 0.958525 -4.706672 2.835520 -8.566435 -1.158475 -0.360197 -2.066910 -1.431589 -2.396250 -119.561559 -72.279613 124.297479 17.084321 -12.443674 2.201558 3.806570 -45.543123 9.363508 -84.968176 82.329182 -72.731639 -1.572085 -8.290230 -3.313115 0.036405 1.728574 -0.204303 -10.889081 -50.087466 15.685913 -148.844092 83.342313 -155.503335 2.236787 -13.437251 6.099768 0.010457 0.025852 0.101144
-0.607144 48.822411 39.103708 171.876485 -35.089435 -6.242751 7.308620 19.138908 6.982196 0.866507 2.571045 0.741185 1.323637 4.149537 1.249377 6.096460 16.354736 5.648937 -1.842076 15.852338 1.787680 -4.084172 -6.269490 4.012056 -1.589907 -1.451846 -3.925841 3.663809 -0.737914 -0.774978 96.065786 -70.462657 -106.650838 1.043137 -4.584939 3.707456 -8.562846 -1.152006 -0.353178 -2.022813 -1.436596 -2.393766 -119.590796 -72.341661 124.261883 17.041729 -12.340377 2.045424 3.362918 -45.322969 9.817454 -82.924540 82.528294 -70.839039 -1.785152 -8.592850 -3.612239 0.115812 1.637433 -0.034998 -10.966627 -50.065524 15.845827 -149.343940 83.361816 -155.963507 2.217435 -13.430100 6.042886 0.001242 0.003294 0.068084
-0.588764 48.829028 39.128705 171.780520 -35.077787 -6.283892 7.392969 19.100396 7.073986 0.846688 2.560137 0.747307 1.328704 4.174264 1.252142 6.109642 16.363865 5.664756 -1.832535 15.847961 1.755137 -4.070363 -6.252675 3.996992 -1.661509 -1.433196 -3.884828 3.684375 -0.756789 -0.852127 96.125245 -70.499159 -106.657819 1.126639 -4.486164 4.343379 -8.552541 -1.155809 -0.365202 -2.012016 -1.415643 -2.336617 -119.710818 -72.432235 124.325359 16.987887 -12.223830 1.911685 3.049736 -45.255892 10.160707 -81.582813 82.665869 -69.589623 -1.905028 -8.654186 -3.875581 0.168300 1.406008 0.090711 -11.020867 -50.075320 15.997098 -149.865423 83.390117 -156.448611 2.191020 -13.421237 5.988861 -0.009753 -0.001939 0.066008
-0.581976 48.841876 39.155497 171.702144 -35.035157 -6.282703 7.441428 19.044827 7.106355 0.827673 2.561415 0.751282 1.350753 4.181979 1.250803 6.115967 16.365470 5.672739 -1.823681 15.868893 1.757956 -4.018080 -6.158496 3.953220 -1.668379 -1.435280 -3.885559 3.635592 -0.724939 -0.862382 96.269336 -70.531895 -106.726025 1.209793 -4.402348 4.774343 -8.553979 -1.152605 -0.358147 -2.002586 -1.415762 -2.334718 -119.664594 -72.479935 124.217322 16.925790 -12.103868 1.803467 2.918828 -45.341242 10.280184 -81.489114 82.693951 -69.494451 -1.847301 -8.525762 -4.051645 0.172739 1.074837 0.140324 -11.044658 -50.120378 16.074586 -150.208640 83.419093 -156.772331 2.198675 -13.398704 5.930717 -0.030516 -0.015083 0.075898
